<svg width="418" height="296" viewBox="0 0 418 296" fill="none" xmlns="http://www.w3.org/2000/svg">
<g filter="url(#filter0_d_54_503)">
<path d="M306.637 235.825C200.728 248.364 229.319 247.078 131.783 238.759C85.3402 234.798 64.5209 209.417 82.8652 183.01C117.854 132.641 135.725 115.791 190.456 109.362C237.918 103.787 261.213 103.787 302.123 143.105C336.411 176.058 364.873 228.929 306.637 235.825Z" fill="#F26749"/>
<g filter="url(#filter1_i_54_503)">
<path d="M204.392 199.678C233.647 199.678 243.242 206.422 243.242 206.422C243.276 206.405 253.399 201.4 285.465 206.422C303.757 209.287 318.488 224.079 324.677 231.25C319.911 233.476 313.912 235.095 306.512 235.971C200.603 248.511 229.194 247.224 131.659 238.905C122.644 238.136 114.594 236.56 107.609 234.326C110.407 231.1 121.045 219.223 132.115 211.983C140.618 206.422 167.154 206.422 167.154 206.422C167.194 206.405 183.453 199.678 204.392 199.678Z" fill="#FCDED6"/>
</g>
<path d="M209.167 184.272C180.264 184.272 173.289 147.581 173.289 147.581L245.044 147.581C245.044 147.581 238.069 184.272 209.167 184.272Z" fill="#503333"/>
<g filter="url(#filter2_i_54_503)">
<path d="M238.462 147.486C240.252 149.764 226.969 157.055 209.299 157.012C191.905 156.97 178.767 149.901 180.072 147.486H238.462Z" fill="#F1F0D8"/>
</g>
<g filter="url(#filter3_ii_54_503)">
<path d="M207.432 163.613C218.014 163.613 223.383 173.23 225.717 179.299C221.596 182.012 216.661 183.851 210.775 184.138H207.527C200.33 183.787 194.556 181.116 189.952 177.363C192.622 171.384 197.921 163.613 207.432 163.613Z" fill="#D43E3E"/>
</g>
<g filter="url(#filter4_d_54_503)">
<path d="M325.508 226.332C325.796 222.294 335.851 219.721 347.965 220.585C360.08 221.45 369.667 225.424 369.379 229.462C369.091 233.501 359.036 236.073 346.922 235.209C334.807 234.344 325.22 230.37 325.508 226.332Z" fill="#F26749"/>
</g>
<g filter="url(#filter5_dd_54_503)">
<path d="M381.469 252.621C385.024 268.42 382.782 282.38 376.463 283.801C370.143 285.223 362.139 273.568 358.584 257.77C355.03 241.971 357.271 228.011 363.591 226.589C369.91 225.167 377.915 236.822 381.469 252.621Z" fill="#F26749"/>
</g>
<g filter="url(#filter6_d_54_503)">
<path d="M106.672 229.86C106.384 225.822 96.3299 223.25 84.2154 224.114C72.1009 224.978 62.5138 228.953 62.802 232.991C63.0901 237.029 73.1444 239.602 85.2589 238.737C97.3734 237.873 106.961 233.899 106.672 229.86Z" fill="#F26749"/>
</g>
<g filter="url(#filter7_dd_54_503)">
<path d="M50.7113 256.149C47.1568 271.948 49.3984 285.908 55.7179 287.33C62.0374 288.752 70.0418 277.097 73.5963 261.298C77.1508 245.499 74.9092 231.539 68.5897 230.118C62.2702 228.696 54.2658 240.351 50.7113 256.149Z" fill="#F26749"/>
</g>
<g filter="url(#filter8_d_54_503)">
<path d="M83.0302 212.04C84.0412 208.12 74.6914 202.32 62.1469 199.085C49.6023 195.85 38.6134 196.405 37.6025 200.325C36.5915 204.245 45.9413 210.046 58.4859 213.281C71.0304 216.516 82.0193 215.961 83.0302 212.04Z" fill="#F26749"/>
</g>
<g filter="url(#filter9_dd_54_503)">
<path d="M17.9125 216.441C8.01964 229.262 4.15719 242.863 9.28544 246.82C14.4137 250.777 26.5907 243.592 36.4835 230.771C46.3763 217.951 50.2387 204.349 45.1105 200.392C39.9822 196.435 27.8053 203.621 17.9125 216.441Z" fill="#F26749"/>
</g>
<g filter="url(#filter10_d_54_503)">
<path d="M334.334 200.605C333.323 196.685 342.673 190.885 355.217 187.65C367.762 184.415 378.751 184.97 379.762 188.89C380.773 192.81 371.423 198.611 358.878 201.846C346.334 205.081 335.345 204.526 334.334 200.605Z" fill="#F26749"/>
</g>
<g filter="url(#filter11_dd_54_503)">
<path d="M399.452 205.006C409.345 217.826 413.207 231.427 408.079 235.385C402.951 239.342 390.774 232.156 380.881 219.336C370.988 206.515 367.126 192.914 372.254 188.957C377.382 185 389.559 192.185 399.452 205.006Z" fill="#F26749"/>
</g>
<g filter="url(#filter12_d_54_503)">
<path d="M193.813 103.797C193.813 119.343 181.999 131.946 167.424 131.946C152.85 131.946 141.035 119.343 141.035 103.797C141.035 88.2514 152.85 75.6489 167.424 75.6489C181.999 75.6489 193.813 88.2514 193.813 103.797Z" fill="white"/>
</g>
<g filter="url(#filter13_d_54_503)">
<path d="M190.881 103.797C190.881 89.6896 180.204 78.5811 167.424 78.5811C154.645 78.5811 143.967 89.6896 143.967 103.797C143.967 117.905 154.645 129.014 167.424 129.014V131.946C152.85 131.946 141.035 119.343 141.035 103.797C141.035 88.2514 152.85 75.6489 167.424 75.6489C181.999 75.6489 193.813 88.2514 193.813 103.797C193.813 119.343 181.999 131.946 167.424 131.946V129.014C180.204 129.014 190.881 117.905 190.881 103.797Z" fill="#F26749"/>
</g>
<path d="M176.924 103.797C176.924 112.542 170.623 119.631 162.85 119.631C155.077 119.631 148.776 112.542 148.776 103.797C148.776 95.0528 155.077 87.9639 162.85 87.9639C170.623 87.9639 176.924 95.0528 176.924 103.797Z" fill="#3F0713"/>
<g filter="url(#filter14_f_54_503)">
<path d="M174.461 100.807C174.461 104.207 172.886 106.964 170.943 106.964C169 106.964 167.424 104.207 167.424 100.807C167.424 97.406 169 94.6492 170.943 94.6492C172.886 94.6492 174.461 97.406 174.461 100.807Z" fill="white"/>
</g>
<g filter="url(#filter15_f_54_503)">
<path d="M157.924 115.761C157.924 116.926 156.979 117.872 155.813 117.872C154.647 117.872 153.702 116.926 153.702 115.761C153.702 114.595 154.647 113.649 155.813 113.649C156.979 113.649 157.924 114.595 157.924 115.761Z" fill="white"/>
</g>
<path d="M178.104 67.5727C178.242 67.1922 178.046 66.7716 177.666 66.6331C177.285 66.4947 176.865 66.6908 176.726 67.0712L173.216 76.7148C173.078 77.0952 173.274 77.5159 173.654 77.6543C174.035 77.7928 174.456 77.5966 174.594 77.2162L178.104 67.5727Z" fill="#F26749"/>
<path d="M168.304 65.2399C168.304 64.835 167.976 64.5068 167.571 64.5068C167.166 64.5068 166.838 64.835 166.838 65.2399V75.5023C166.838 75.9072 167.166 76.2354 167.571 76.2354C167.976 76.2354 168.304 75.9072 168.304 75.5023V65.2399Z" fill="#F26749"/>
<path d="M158.297 66.4535C158.159 66.0731 157.738 65.8769 157.358 66.0154C156.977 66.1539 156.781 66.5745 156.92 66.9549L160.43 76.5985C160.568 76.9789 160.989 77.1751 161.369 77.0366C161.75 76.8981 161.946 76.4775 161.807 76.0971L158.297 66.4535Z" fill="#F26749"/>
<g filter="url(#filter16_d_54_503)">
<path d="M271.515 103.797C271.515 119.343 259.7 131.946 245.126 131.946C230.552 131.946 218.737 119.343 218.737 103.797C218.737 88.2514 230.552 75.6489 245.126 75.6489C259.7 75.6489 271.515 88.2514 271.515 103.797Z" fill="white"/>
</g>
<g filter="url(#filter17_d_54_503)">
<path d="M268.583 103.797C268.583 89.6896 257.906 78.5811 245.126 78.5811C232.346 78.5811 221.669 89.6896 221.669 103.797C221.669 117.905 232.346 129.014 245.126 129.014V131.946C230.552 131.946 218.737 119.343 218.737 103.797C218.737 88.2514 230.552 75.6489 245.126 75.6489C259.7 75.6489 271.515 88.2514 271.515 103.797C271.515 119.343 259.7 131.946 245.126 131.946V129.014C257.906 129.014 268.583 117.905 268.583 103.797Z" fill="#F26749"/>
</g>
<path d="M254.626 103.797C254.626 112.542 248.325 119.631 240.552 119.631C232.779 119.631 226.478 112.542 226.478 103.797C226.478 95.0528 232.779 87.9639 240.552 87.9639C248.325 87.9639 254.626 95.0528 254.626 103.797Z" fill="#3F0713"/>
<g filter="url(#filter18_f_54_503)">
<path d="M252.163 100.807C252.163 104.207 250.588 106.964 248.645 106.964C246.701 106.964 245.126 104.207 245.126 100.807C245.126 97.406 246.701 94.6492 248.645 94.6492C250.588 94.6492 252.163 97.406 252.163 100.807Z" fill="white"/>
</g>
<g filter="url(#filter19_f_54_503)">
<path d="M235.626 115.761C235.626 116.926 234.681 117.872 233.515 117.872C232.349 117.872 231.404 116.926 231.404 115.761C231.404 114.595 232.349 113.649 233.515 113.649C234.681 113.649 235.626 114.595 235.626 115.761Z" fill="white"/>
</g>
<path d="M255.806 67.5727C255.944 67.1922 255.748 66.7716 255.367 66.6331C254.987 66.4947 254.566 66.6908 254.428 67.0712L250.918 76.7148C250.78 77.0952 250.976 77.5159 251.356 77.6543C251.737 77.7928 252.157 77.5966 252.296 77.2162L255.806 67.5727Z" fill="#F26749"/>
<path d="M246.005 65.2399C246.005 64.835 245.677 64.5068 245.272 64.5068C244.867 64.5068 244.539 64.835 244.539 65.2399V75.5023C244.539 75.9072 244.867 76.2354 245.272 76.2354C245.677 76.2354 246.005 75.9072 246.005 75.5023V65.2399Z" fill="#F26749"/>
<path d="M235.999 66.4535C235.861 66.0731 235.44 65.8769 235.06 66.0154C234.679 66.1539 234.483 66.5745 234.621 66.9549L238.131 76.5985C238.27 76.9789 238.691 77.1751 239.071 77.0366C239.451 76.8981 239.648 76.4775 239.509 76.0971L235.999 66.4535Z" fill="#F26749"/>
<g filter="url(#filter20_d_54_503)">
<path d="M90.8907 178.327C86.9852 182.978 76.2798 180.415 66.9793 172.605C57.6789 164.794 53.3054 154.692 57.2108 150.042C61.1162 145.392 71.8217 147.954 81.1222 155.765C90.4226 163.576 94.7961 173.677 90.8907 178.327Z" fill="#F26749"/>
</g>
<g filter="url(#filter21_d_54_503)">
<path d="M77.4082 118.458C77.4082 138.7 68.8753 155.11 58.3494 155.11C47.8235 155.11 39.2905 138.7 39.2905 118.458C39.2905 98.2159 47.8235 81.8064 58.3494 81.8064C68.8753 81.8064 77.4082 98.2159 77.4082 118.458Z" fill="#F26749"/>
</g>
<g filter="url(#filter22_i_54_503)">
<path d="M82.1225 3.52947C89.8926 1.52574 102.453 3.52945 102.453 3.52945C102.453 3.52945 91.5259 8.21476 85.633 12.88C79.8807 17.4339 75.232 22.7876 72.9247 26.7188C68.8352 33.6869 69.335 46.9161 77.41 46.9161C81.0962 46.9161 88.5302 43.9439 92.5478 38.5006C97.22 32.1704 100.741 17.3631 100.741 17.3631C100.741 17.3631 104.094 32.6049 104.695 42.2408C105.446 54.2621 102.453 63.5354 97.22 72.1626C93.9108 77.6184 88.687 85.1946 80.2133 89.3676C72.9035 92.9675 63.6156 94.0391 55.7312 91.9858C51.244 90.8172 47.8826 88.174 44.7378 84.3623C41.3512 80.2573 40.1453 74.6226 39.472 66.7393C38.8736 59.7324 39.7104 51.4292 42.6491 42.2408C45.8556 32.2149 48.5222 26.3438 55.7312 18.6774C67.1686 6.51418 72.9247 5.90133 82.1225 3.52947Z" fill="#F26749"/>
</g>
<g filter="url(#filter23_d_54_503)">
<path d="M318.567 175.689C322.473 180.339 333.178 177.777 342.479 169.966C351.779 162.155 356.153 152.053 352.247 147.403C348.342 142.753 337.636 145.315 328.336 153.126C319.035 160.937 314.662 171.038 318.567 175.689Z" fill="#F26749"/>
</g>
<g filter="url(#filter24_d_54_503)">
<path d="M332.05 115.819C332.05 136.061 340.583 152.471 351.109 152.471C361.635 152.471 370.167 136.061 370.167 115.819C370.167 95.577 361.635 79.1675 351.109 79.1675C340.583 79.1675 332.05 95.577 332.05 115.819Z" fill="#F26749"/>
</g>
<g filter="url(#filter25_i_54_503)">
<path d="M327.336 0.890549C319.565 -1.11318 307.005 0.890532 307.005 0.890532C307.005 0.890532 317.932 5.57584 323.825 10.2411C329.577 14.795 334.226 20.1486 336.533 24.0799C340.623 31.048 340.123 44.2772 332.048 44.2772C328.362 44.2772 320.928 41.305 316.91 35.8616C312.238 29.5315 308.717 14.7242 308.717 14.7242C308.717 14.7242 305.364 29.966 304.763 39.6019C304.012 51.6232 307.005 60.8965 312.238 69.5237C315.547 74.9794 320.771 82.5557 329.245 86.7287C336.555 90.3286 345.842 91.4002 353.727 89.3469C358.214 88.1783 361.575 85.5351 364.72 81.7233C368.107 77.6184 369.313 71.9837 369.986 64.1003C370.584 57.0935 369.748 48.7903 366.809 39.6019C363.602 29.576 360.936 23.7048 353.727 16.0384C342.289 3.87526 336.533 3.26242 327.336 0.890549Z" fill="#F26749"/>
</g>
</g>
<defs>
<filter id="filter0_d_54_503" x="5.01758" y="0" width="407.329" height="293.448" filterUnits="userSpaceOnUse" color-interpolation-filters="sRGB">
<feFlood flood-opacity="0" result="BackgroundImageFix"/>
<feColorMatrix in="SourceAlpha" type="matrix" values="0 0 0 0 0 0 0 0 0 0 0 0 0 0 0 0 0 0 127 0" result="hardAlpha"/>
<feOffset dy="4"/>
<feGaussianBlur stdDeviation="1"/>
<feComposite in2="hardAlpha" operator="out"/>
<feColorMatrix type="matrix" values="0 0 0 0 0 0 0 0 0 0 0 0 0 0 0 0 0 0 0.25 0"/>
<feBlend mode="normal" in2="BackgroundImageFix" result="effect1_dropShadow_54_503"/>
<feBlend mode="normal" in="SourceGraphic" in2="effect1_dropShadow_54_503" result="shape"/>
</filter>
<filter id="filter1_i_54_503" x="107.609" y="199.678" width="247.067" height="75.5945" filterUnits="userSpaceOnUse" color-interpolation-filters="sRGB">
<feFlood flood-opacity="0" result="BackgroundImageFix"/>
<feBlend mode="normal" in="SourceGraphic" in2="BackgroundImageFix" result="shape"/>
<feColorMatrix in="SourceAlpha" type="matrix" values="0 0 0 0 0 0 0 0 0 0 0 0 0 0 0 0 0 0 127 0" result="hardAlpha"/>
<feOffset dx="30" dy="30"/>
<feGaussianBlur stdDeviation="20"/>
<feComposite in2="hardAlpha" operator="arithmetic" k2="-1" k3="1"/>
<feColorMatrix type="matrix" values="0 0 0 0 0 0 0 0 0 0 0 0 0 0 0 0 0 0 0.04 0"/>
<feBlend mode="normal" in2="shape" result="effect1_innerShadow_54_503"/>
</filter>
<filter id="filter2_i_54_503" x="179.982" y="147.486" width="62.6416" height="9.52637" filterUnits="userSpaceOnUse" color-interpolation-filters="sRGB">
<feFlood flood-opacity="0" result="BackgroundImageFix"/>
<feBlend mode="normal" in="SourceGraphic" in2="BackgroundImageFix" result="shape"/>
<feColorMatrix in="SourceAlpha" type="matrix" values="0 0 0 0 0 0 0 0 0 0 0 0 0 0 0 0 0 0 127 0" result="hardAlpha"/>
<feOffset dx="35"/>
<feGaussianBlur stdDeviation="2"/>
<feComposite in2="hardAlpha" operator="arithmetic" k2="-1" k3="1"/>
<feColorMatrix type="matrix" values="0 0 0 0 0 0 0 0 0 0 0 0 0 0 0 0 0 0 0.1 0"/>
<feBlend mode="normal" in2="shape" result="effect1_innerShadow_54_503"/>
</filter>
<filter id="filter3_ii_54_503" x="184.952" y="158.613" width="45.7656" height="30.5249" filterUnits="userSpaceOnUse" color-interpolation-filters="sRGB">
<feFlood flood-opacity="0" result="BackgroundImageFix"/>
<feBlend mode="normal" in="SourceGraphic" in2="BackgroundImageFix" result="shape"/>
<feColorMatrix in="SourceAlpha" type="matrix" values="0 0 0 0 0 0 0 0 0 0 0 0 0 0 0 0 0 0 127 0" result="hardAlpha"/>
<feOffset dx="5" dy="5"/>
<feGaussianBlur stdDeviation="20"/>
<feComposite in2="hardAlpha" operator="arithmetic" k2="-1" k3="1"/>
<feColorMatrix type="matrix" values="0 0 0 0 0 0 0 0 0 0 0 0 0 0 0 0 0 0 0.25 0"/>
<feBlend mode="normal" in2="shape" result="effect1_innerShadow_54_503"/>
<feColorMatrix in="SourceAlpha" type="matrix" values="0 0 0 0 0 0 0 0 0 0 0 0 0 0 0 0 0 0 127 0" result="hardAlpha"/>
<feOffset dx="-5" dy="-5"/>
<feGaussianBlur stdDeviation="20"/>
<feComposite in2="hardAlpha" operator="arithmetic" k2="-1" k3="1"/>
<feColorMatrix type="matrix" values="0 0 0 0 0 0 0 0 0 0 0 0 0 0 0 0 0 0 0.25 0"/>
<feBlend mode="normal" in2="effect1_innerShadow_54_503" result="effect2_innerShadow_54_503"/>
</filter>
<filter id="filter4_d_54_503" x="315.502" y="220.418" width="53.8833" height="14.958" filterUnits="userSpaceOnUse" color-interpolation-filters="sRGB">
<feFlood flood-opacity="0" result="BackgroundImageFix"/>
<feColorMatrix in="SourceAlpha" type="matrix" values="0 0 0 0 0 0 0 0 0 0 0 0 0 0 0 0 0 0 127 0" result="hardAlpha"/>
<feOffset dx="-10"/>
<feComposite in2="hardAlpha" operator="out"/>
<feColorMatrix type="matrix" values="0 0 0 0 0.838003 0 0 0 0 0.288148 0 0 0 0 0.0132197 0 0 0 1 0"/>
<feBlend mode="normal" in2="BackgroundImageFix" result="effect1_dropShadow_54_503"/>
<feBlend mode="normal" in="SourceGraphic" in2="effect1_dropShadow_54_503" result="shape"/>
</filter>
<filter id="filter5_dd_54_503" x="352.896" y="221.471" width="34.2607" height="70.4475" filterUnits="userSpaceOnUse" color-interpolation-filters="sRGB">
<feFlood flood-opacity="0" result="BackgroundImageFix"/>
<feColorMatrix in="SourceAlpha" type="matrix" values="0 0 0 0 0 0 0 0 0 0 0 0 0 0 0 0 0 0 127 0" result="hardAlpha"/>
<feOffset dx="-2" dy="-5"/>
<feComposite in2="hardAlpha" operator="out"/>
<feColorMatrix type="matrix" values="0 0 0 0 0.838003 0 0 0 0 0.288148 0 0 0 0 0.0132197 0 0 0 1 0"/>
<feBlend mode="normal" in2="BackgroundImageFix" result="effect1_dropShadow_54_503"/>
<feColorMatrix in="SourceAlpha" type="matrix" values="0 0 0 0 0 0 0 0 0 0 0 0 0 0 0 0 0 0 127 0" result="hardAlpha"/>
<feOffset dy="4"/>
<feGaussianBlur stdDeviation="2"/>
<feComposite in2="hardAlpha" operator="out"/>
<feColorMatrix type="matrix" values="0 0 0 0 0 0 0 0 0 0 0 0 0 0 0 0 0 0 0.25 0"/>
<feBlend mode="normal" in2="effect1_dropShadow_54_503" result="effect2_dropShadow_54_503"/>
<feBlend mode="normal" in="SourceGraphic" in2="effect2_dropShadow_54_503" result="shape"/>
</filter>
<filter id="filter6_d_54_503" x="62.7954" y="223.947" width="53.8833" height="14.958" filterUnits="userSpaceOnUse" color-interpolation-filters="sRGB">
<feFlood flood-opacity="0" result="BackgroundImageFix"/>
<feColorMatrix in="SourceAlpha" type="matrix" values="0 0 0 0 0 0 0 0 0 0 0 0 0 0 0 0 0 0 127 0" result="hardAlpha"/>
<feOffset dx="10"/>
<feComposite in2="hardAlpha" operator="out"/>
<feColorMatrix type="matrix" values="0 0 0 0 0.838003 0 0 0 0 0.288148 0 0 0 0 0.0132197 0 0 0 1 0"/>
<feBlend mode="normal" in2="BackgroundImageFix" result="effect1_dropShadow_54_503"/>
<feBlend mode="normal" in="SourceGraphic" in2="effect1_dropShadow_54_503" result="shape"/>
</filter>
<filter id="filter7_dd_54_503" x="45.0234" y="225" width="34.2607" height="70.4475" filterUnits="userSpaceOnUse" color-interpolation-filters="sRGB">
<feFlood flood-opacity="0" result="BackgroundImageFix"/>
<feColorMatrix in="SourceAlpha" type="matrix" values="0 0 0 0 0 0 0 0 0 0 0 0 0 0 0 0 0 0 127 0" result="hardAlpha"/>
<feOffset dx="2" dy="-5"/>
<feComposite in2="hardAlpha" operator="out"/>
<feColorMatrix type="matrix" values="0 0 0 0 0.838003 0 0 0 0 0.288148 0 0 0 0 0.0132197 0 0 0 1 0"/>
<feBlend mode="normal" in2="BackgroundImageFix" result="effect1_dropShadow_54_503"/>
<feColorMatrix in="SourceAlpha" type="matrix" values="0 0 0 0 0 0 0 0 0 0 0 0 0 0 0 0 0 0 127 0" result="hardAlpha"/>
<feOffset dy="4"/>
<feGaussianBlur stdDeviation="2"/>
<feComposite in2="hardAlpha" operator="out"/>
<feColorMatrix type="matrix" values="0 0 0 0 0 0 0 0 0 0 0 0 0 0 0 0 0 0 0.25 0"/>
<feBlend mode="normal" in2="effect1_dropShadow_54_503" result="effect2_dropShadow_54_503"/>
<feBlend mode="normal" in="SourceGraphic" in2="effect2_dropShadow_54_503" result="shape"/>
</filter>
<filter id="filter8_d_54_503" x="37.5278" y="196.98" width="50.5771" height="18.4062" filterUnits="userSpaceOnUse" color-interpolation-filters="sRGB">
<feFlood flood-opacity="0" result="BackgroundImageFix"/>
<feColorMatrix in="SourceAlpha" type="matrix" values="0 0 0 0 0 0 0 0 0 0 0 0 0 0 0 0 0 0 127 0" result="hardAlpha"/>
<feOffset dx="5"/>
<feComposite in2="hardAlpha" operator="out"/>
<feColorMatrix type="matrix" values="0 0 0 0 0.838003 0 0 0 0 0.288148 0 0 0 0 0.0132197 0 0 0 1 0"/>
<feBlend mode="normal" in2="BackgroundImageFix" result="effect1_dropShadow_54_503"/>
<feBlend mode="normal" in="SourceGraphic" in2="effect1_dropShadow_54_503" result="shape"/>
</filter>
<filter id="filter9_dd_54_503" x="3.01758" y="194.305" width="48.3608" height="61.6016" filterUnits="userSpaceOnUse" color-interpolation-filters="sRGB">
<feFlood flood-opacity="0" result="BackgroundImageFix"/>
<feColorMatrix in="SourceAlpha" type="matrix" values="0 0 0 0 0 0 0 0 0 0 0 0 0 0 0 0 0 0 127 0" result="hardAlpha"/>
<feOffset dx="2" dy="-5"/>
<feComposite in2="hardAlpha" operator="out"/>
<feColorMatrix type="matrix" values="0 0 0 0 0.838003 0 0 0 0 0.288148 0 0 0 0 0.0132197 0 0 0 1 0"/>
<feBlend mode="normal" in2="BackgroundImageFix" result="effect1_dropShadow_54_503"/>
<feColorMatrix in="SourceAlpha" type="matrix" values="0 0 0 0 0 0 0 0 0 0 0 0 0 0 0 0 0 0 127 0" result="hardAlpha"/>
<feOffset dy="4"/>
<feGaussianBlur stdDeviation="2"/>
<feComposite in2="hardAlpha" operator="out"/>
<feColorMatrix type="matrix" values="0 0 0 0 0 0 0 0 0 0 0 0 0 0 0 0 0 0 0.25 0"/>
<feBlend mode="normal" in2="effect1_dropShadow_54_503" result="effect2_dropShadow_54_503"/>
<feBlend mode="normal" in="SourceGraphic" in2="effect2_dropShadow_54_503" result="shape"/>
</filter>
<filter id="filter10_d_54_503" x="329.259" y="185.545" width="50.5771" height="18.4062" filterUnits="userSpaceOnUse" color-interpolation-filters="sRGB">
<feFlood flood-opacity="0" result="BackgroundImageFix"/>
<feColorMatrix in="SourceAlpha" type="matrix" values="0 0 0 0 0 0 0 0 0 0 0 0 0 0 0 0 0 0 127 0" result="hardAlpha"/>
<feOffset dx="-5"/>
<feComposite in2="hardAlpha" operator="out"/>
<feColorMatrix type="matrix" values="0 0 0 0 0.838003 0 0 0 0 0.288148 0 0 0 0 0.0132197 0 0 0 1 0"/>
<feBlend mode="normal" in2="BackgroundImageFix" result="effect1_dropShadow_54_503"/>
<feBlend mode="normal" in="SourceGraphic" in2="effect1_dropShadow_54_503" result="shape"/>
</filter>
<filter id="filter11_dd_54_503" x="365.986" y="182.87" width="48.3608" height="61.6016" filterUnits="userSpaceOnUse" color-interpolation-filters="sRGB">
<feFlood flood-opacity="0" result="BackgroundImageFix"/>
<feColorMatrix in="SourceAlpha" type="matrix" values="0 0 0 0 0 0 0 0 0 0 0 0 0 0 0 0 0 0 127 0" result="hardAlpha"/>
<feOffset dx="-2" dy="-5"/>
<feComposite in2="hardAlpha" operator="out"/>
<feColorMatrix type="matrix" values="0 0 0 0 0.838003 0 0 0 0 0.288148 0 0 0 0 0.0132197 0 0 0 1 0"/>
<feBlend mode="normal" in2="BackgroundImageFix" result="effect1_dropShadow_54_503"/>
<feColorMatrix in="SourceAlpha" type="matrix" values="0 0 0 0 0 0 0 0 0 0 0 0 0 0 0 0 0 0 127 0" result="hardAlpha"/>
<feOffset dy="4"/>
<feGaussianBlur stdDeviation="2"/>
<feComposite in2="hardAlpha" operator="out"/>
<feColorMatrix type="matrix" values="0 0 0 0 0 0 0 0 0 0 0 0 0 0 0 0 0 0 0.25 0"/>
<feBlend mode="normal" in2="effect1_dropShadow_54_503" result="effect2_dropShadow_54_503"/>
<feBlend mode="normal" in="SourceGraphic" in2="effect2_dropShadow_54_503" result="shape"/>
</filter>
<filter id="filter12_d_54_503" x="131.035" y="69.6489" width="72.7783" height="76.2969" filterUnits="userSpaceOnUse" color-interpolation-filters="sRGB">
<feFlood flood-opacity="0" result="BackgroundImageFix"/>
<feColorMatrix in="SourceAlpha" type="matrix" values="0 0 0 0 0 0 0 0 0 0 0 0 0 0 0 0 0 0 127 0" result="hardAlpha"/>
<feOffset dy="4"/>
<feGaussianBlur stdDeviation="5"/>
<feComposite in2="hardAlpha" operator="out"/>
<feColorMatrix type="matrix" values="0 0 0 0 0 0 0 0 0 0 0 0 0 0 0 0 0 0 0.25 0"/>
<feBlend mode="normal" in2="BackgroundImageFix" result="effect1_dropShadow_54_503"/>
<feBlend mode="normal" in="SourceGraphic" in2="effect1_dropShadow_54_503" result="shape"/>
</filter>
<filter id="filter13_d_54_503" x="131.035" y="69.6489" width="72.7783" height="76.2969" filterUnits="userSpaceOnUse" color-interpolation-filters="sRGB">
<feFlood flood-opacity="0" result="BackgroundImageFix"/>
<feColorMatrix in="SourceAlpha" type="matrix" values="0 0 0 0 0 0 0 0 0 0 0 0 0 0 0 0 0 0 127 0" result="hardAlpha"/>
<feOffset dy="4"/>
<feGaussianBlur stdDeviation="5"/>
<feComposite in2="hardAlpha" operator="out"/>
<feColorMatrix type="matrix" values="0 0 0 0 0 0 0 0 0 0 0 0 0 0 0 0 0 0 0.25 0"/>
<feBlend mode="normal" in2="BackgroundImageFix" result="effect1_dropShadow_54_503"/>
<feBlend mode="normal" in="SourceGraphic" in2="effect1_dropShadow_54_503" result="shape"/>
</filter>
<filter id="filter14_f_54_503" x="166.424" y="93.6492" width="9.03711" height="14.3149" filterUnits="userSpaceOnUse" color-interpolation-filters="sRGB">
<feFlood flood-opacity="0" result="BackgroundImageFix"/>
<feBlend mode="normal" in="SourceGraphic" in2="BackgroundImageFix" result="shape"/>
<feGaussianBlur stdDeviation="0.5" result="effect1_foregroundBlur_54_503"/>
</filter>
<filter id="filter15_f_54_503" x="152.702" y="112.649" width="6.22217" height="6.22217" filterUnits="userSpaceOnUse" color-interpolation-filters="sRGB">
<feFlood flood-opacity="0" result="BackgroundImageFix"/>
<feBlend mode="normal" in="SourceGraphic" in2="BackgroundImageFix" result="shape"/>
<feGaussianBlur stdDeviation="0.5" result="effect1_foregroundBlur_54_503"/>
</filter>
<filter id="filter16_d_54_503" x="208.737" y="69.6489" width="72.7783" height="76.2969" filterUnits="userSpaceOnUse" color-interpolation-filters="sRGB">
<feFlood flood-opacity="0" result="BackgroundImageFix"/>
<feColorMatrix in="SourceAlpha" type="matrix" values="0 0 0 0 0 0 0 0 0 0 0 0 0 0 0 0 0 0 127 0" result="hardAlpha"/>
<feOffset dy="4"/>
<feGaussianBlur stdDeviation="5"/>
<feComposite in2="hardAlpha" operator="out"/>
<feColorMatrix type="matrix" values="0 0 0 0 0 0 0 0 0 0 0 0 0 0 0 0 0 0 0.25 0"/>
<feBlend mode="normal" in2="BackgroundImageFix" result="effect1_dropShadow_54_503"/>
<feBlend mode="normal" in="SourceGraphic" in2="effect1_dropShadow_54_503" result="shape"/>
</filter>
<filter id="filter17_d_54_503" x="208.737" y="69.6489" width="72.7783" height="76.2969" filterUnits="userSpaceOnUse" color-interpolation-filters="sRGB">
<feFlood flood-opacity="0" result="BackgroundImageFix"/>
<feColorMatrix in="SourceAlpha" type="matrix" values="0 0 0 0 0 0 0 0 0 0 0 0 0 0 0 0 0 0 127 0" result="hardAlpha"/>
<feOffset dy="4"/>
<feGaussianBlur stdDeviation="5"/>
<feComposite in2="hardAlpha" operator="out"/>
<feColorMatrix type="matrix" values="0 0 0 0 0 0 0 0 0 0 0 0 0 0 0 0 0 0 0.25 0"/>
<feBlend mode="normal" in2="BackgroundImageFix" result="effect1_dropShadow_54_503"/>
<feBlend mode="normal" in="SourceGraphic" in2="effect1_dropShadow_54_503" result="shape"/>
</filter>
<filter id="filter18_f_54_503" x="244.126" y="93.6492" width="9.03711" height="14.3149" filterUnits="userSpaceOnUse" color-interpolation-filters="sRGB">
<feFlood flood-opacity="0" result="BackgroundImageFix"/>
<feBlend mode="normal" in="SourceGraphic" in2="BackgroundImageFix" result="shape"/>
<feGaussianBlur stdDeviation="0.5" result="effect1_foregroundBlur_54_503"/>
</filter>
<filter id="filter19_f_54_503" x="230.404" y="112.649" width="6.22217" height="6.22217" filterUnits="userSpaceOnUse" color-interpolation-filters="sRGB">
<feFlood flood-opacity="0" result="BackgroundImageFix"/>
<feBlend mode="normal" in="SourceGraphic" in2="BackgroundImageFix" result="shape"/>
<feGaussianBlur stdDeviation="0.5" result="effect1_foregroundBlur_54_503"/>
</filter>
<filter id="filter20_d_54_503" x="55.7817" y="147.723" width="41.5381" height="40.9241" filterUnits="userSpaceOnUse" color-interpolation-filters="sRGB">
<feFlood flood-opacity="0" result="BackgroundImageFix"/>
<feColorMatrix in="SourceAlpha" type="matrix" values="0 0 0 0 0 0 0 0 0 0 0 0 0 0 0 0 0 0 127 0" result="hardAlpha"/>
<feOffset dx="5" dy="8"/>
<feComposite in2="hardAlpha" operator="out"/>
<feColorMatrix type="matrix" values="0 0 0 0 0.839216 0 0 0 0 0.286275 0 0 0 0 0.0117647 0 0 0 1 0"/>
<feBlend mode="normal" in2="BackgroundImageFix" result="effect1_dropShadow_54_503"/>
<feBlend mode="normal" in="SourceGraphic" in2="effect1_dropShadow_54_503" result="shape"/>
</filter>
<filter id="filter21_d_54_503" x="39.2905" y="81.8064" width="40.1177" height="83.3032" filterUnits="userSpaceOnUse" color-interpolation-filters="sRGB">
<feFlood flood-opacity="0" result="BackgroundImageFix"/>
<feColorMatrix in="SourceAlpha" type="matrix" values="0 0 0 0 0 0 0 0 0 0 0 0 0 0 0 0 0 0 127 0" result="hardAlpha"/>
<feOffset dx="2" dy="10"/>
<feComposite in2="hardAlpha" operator="out"/>
<feColorMatrix type="matrix" values="0 0 0 0 0.839216 0 0 0 0 0.286275 0 0 0 0 0.0117647 0 0 0 1 0"/>
<feBlend mode="normal" in2="BackgroundImageFix" result="effect1_dropShadow_54_503"/>
<feBlend mode="normal" in="SourceGraphic" in2="effect1_dropShadow_54_503" result="shape"/>
</filter>
<filter id="filter22_i_54_503" x="39.2905" y="2.63892" width="65.5195" height="90.3809" filterUnits="userSpaceOnUse" color-interpolation-filters="sRGB">
<feFlood flood-opacity="0" result="BackgroundImageFix"/>
<feBlend mode="normal" in="SourceGraphic" in2="BackgroundImageFix" result="shape"/>
<feColorMatrix in="SourceAlpha" type="matrix" values="0 0 0 0 0 0 0 0 0 0 0 0 0 0 0 0 0 0 127 0" result="hardAlpha"/>
<feOffset dy="-10"/>
<feComposite in2="hardAlpha" operator="arithmetic" k2="-1" k3="1"/>
<feColorMatrix type="matrix" values="0 0 0 0 0.839216 0 0 0 0 0.286275 0 0 0 0 0.0117647 0 0 0 1 0"/>
<feBlend mode="normal" in2="shape" result="effect1_innerShadow_54_503"/>
</filter>
<filter id="filter23_d_54_503" x="312.138" y="145.084" width="41.5381" height="40.9241" filterUnits="userSpaceOnUse" color-interpolation-filters="sRGB">
<feFlood flood-opacity="0" result="BackgroundImageFix"/>
<feColorMatrix in="SourceAlpha" type="matrix" values="0 0 0 0 0 0 0 0 0 0 0 0 0 0 0 0 0 0 127 0" result="hardAlpha"/>
<feOffset dx="-5" dy="8"/>
<feComposite in2="hardAlpha" operator="out"/>
<feColorMatrix type="matrix" values="0 0 0 0 0.839216 0 0 0 0 0.286275 0 0 0 0 0.0117647 0 0 0 1 0"/>
<feBlend mode="normal" in2="BackgroundImageFix" result="effect1_dropShadow_54_503"/>
<feBlend mode="normal" in="SourceGraphic" in2="effect1_dropShadow_54_503" result="shape"/>
</filter>
<filter id="filter24_d_54_503" x="332.05" y="79.1675" width="40.1177" height="83.3032" filterUnits="userSpaceOnUse" color-interpolation-filters="sRGB">
<feFlood flood-opacity="0" result="BackgroundImageFix"/>
<feColorMatrix in="SourceAlpha" type="matrix" values="0 0 0 0 0 0 0 0 0 0 0 0 0 0 0 0 0 0 127 0" result="hardAlpha"/>
<feOffset dx="2" dy="10"/>
<feComposite in2="hardAlpha" operator="out"/>
<feColorMatrix type="matrix" values="0 0 0 0 0.839216 0 0 0 0 0.286275 0 0 0 0 0.0117647 0 0 0 1 0"/>
<feBlend mode="normal" in2="BackgroundImageFix" result="effect1_dropShadow_54_503"/>
<feBlend mode="normal" in="SourceGraphic" in2="effect1_dropShadow_54_503" result="shape"/>
</filter>
<filter id="filter25_i_54_503" x="304.648" y="0" width="65.5195" height="90.3809" filterUnits="userSpaceOnUse" color-interpolation-filters="sRGB">
<feFlood flood-opacity="0" result="BackgroundImageFix"/>
<feBlend mode="normal" in="SourceGraphic" in2="BackgroundImageFix" result="shape"/>
<feColorMatrix in="SourceAlpha" type="matrix" values="0 0 0 0 0 0 0 0 0 0 0 0 0 0 0 0 0 0 127 0" result="hardAlpha"/>
<feOffset dy="-10"/>
<feComposite in2="hardAlpha" operator="arithmetic" k2="-1" k3="1"/>
<feColorMatrix type="matrix" values="0 0 0 0 0.839216 0 0 0 0 0.286275 0 0 0 0 0.0117647 0 0 0 1 0"/>
<feBlend mode="normal" in2="shape" result="effect1_innerShadow_54_503"/>
</filter>
</defs>
</svg>
