<svg width="325" height="230" viewBox="0 0 325 230" fill="none" xmlns="http://www.w3.org/2000/svg">
<g filter="url(#filter0_d_389_620)">
<path d="M162.176 0C74.818 0 4.00023 36.4302 4 81.3691C4 126.308 74.8179 162.738 162.176 162.738C182.784 162.738 202.472 160.71 220.527 157.021L294.767 221.167L277.095 137.279C303.907 122.7 320.351 103.023 320.351 81.3691C320.35 36.4302 249.533 9.33536e-05 162.176 0Z" fill="#F5F5F5"/>
</g>
<path d="M77.48 75.3C77.8667 75.3 78.16 75.4333 78.36 75.7C78.56 75.9533 78.66 76.3733 78.66 76.96C78.66 77.6933 78.5733 78.52 78.4 79.44C78.2267 80.36 77.98 81.2333 77.66 82.06L77.34 81.66C78.4067 81.4333 79.5133 81.3267 80.66 81.34C81.8067 81.3533 82.8467 81.4867 83.78 81.74L83.42 81.92C83.2467 81.0267 83.1133 80.14 83.02 79.26C82.94 78.38 82.9 77.6 82.9 76.92C82.9 76.2933 82.9933 75.8467 83.18 75.58C83.3667 75.3133 83.6667 75.18 84.08 75.18C84.5067 75.18 84.84 75.3333 85.08 75.64C85.32 75.9333 85.5067 76.4 85.64 77.04C85.7867 77.7067 85.9 78.5133 85.98 79.46C86.0733 80.3933 86.12 81.3533 86.12 82.34C86.12 83.3133 86.0933 84.3067 86.04 85.32C85.9867 86.3333 85.8867 87.2733 85.74 88.14C85.62 88.8333 85.4267 89.3333 85.16 89.64C84.8933 89.9467 84.5267 90.1 84.06 90.1C83.58 90.1 83.2333 89.9467 83.02 89.64C82.82 89.3333 82.72 88.76 82.72 87.92C82.72 87.1067 82.78 86.26 82.9 85.38C83.0333 84.5 83.2133 83.6333 83.44 82.78L83.86 83.4C82.8467 83.6133 81.7867 83.72 80.68 83.72C79.5867 83.7067 78.52 83.6 77.48 83.4L77.52 82.72C77.7867 83.5867 78.0333 84.48 78.26 85.4C78.5 86.32 78.62 87.24 78.62 88.16C78.62 88.8933 78.4933 89.4133 78.24 89.72C77.9867 90.0133 77.6267 90.16 77.16 90.16C76.76 90.16 76.44 90.0467 76.2 89.82C75.96 89.5933 75.7867 89.1733 75.68 88.56C75.5733 87.96 75.4867 87.2133 75.42 86.32C75.3533 85.4133 75.32 84.46 75.32 83.46C75.32 82.2733 75.3733 81.12 75.48 80C75.5867 78.88 75.7267 77.92 75.9 77.12C76.0333 76.4933 76.2267 76.0333 76.48 75.74C76.7333 75.4467 77.0667 75.3 77.48 75.3ZM89.2375 77.42C89.7575 77.42 90.1442 77.62 90.3975 78.02C90.6508 78.42 90.8642 79.0333 91.0375 79.86C91.1842 80.5667 91.3908 81.3867 91.6575 82.32C91.9242 83.24 92.2242 84.1867 92.5575 85.16C92.9042 86.1333 93.2575 87.0667 93.6175 87.96H93.6975C94.0175 87.1333 94.3108 86.2533 94.5775 85.32C94.8575 84.3867 95.0908 83.4733 95.2775 82.58C95.4775 81.6733 95.6108 80.8667 95.6775 80.16C95.7575 79.2933 95.8975 78.68 96.0975 78.32C96.2975 77.9467 96.6175 77.76 97.0575 77.76C97.5242 77.76 97.8908 77.9467 98.1575 78.32C98.4242 78.6933 98.5575 79.2733 98.5575 80.06C98.5575 80.7267 98.4842 81.4333 98.3375 82.18C98.2042 82.9267 98.0175 83.6667 97.7775 84.4C97.5508 85.1333 97.2908 85.8133 96.9975 86.44C96.6508 87.1867 96.3042 87.84 95.9575 88.4C95.6108 88.9467 95.2242 89.3733 94.7975 89.68C94.3842 89.9867 93.8775 90.14 93.2775 90.14C92.6375 90.14 92.0908 89.9133 91.6375 89.46C91.1842 89.0067 90.6842 88.2933 90.1375 87.32C89.6842 86.48 89.2908 85.6067 88.9575 84.7C88.6375 83.7933 88.3842 82.9067 88.1975 82.04C88.0242 81.16 87.9375 80.36 87.9375 79.64C87.9375 78.8933 88.0375 78.34 88.2375 77.98C88.4508 77.6067 88.7842 77.42 89.2375 77.42ZM109.019 90.2C108.565 90.2 108.252 90.0267 108.079 89.68C107.919 89.32 107.825 88.7533 107.799 87.98L107.999 88.08C107.252 89.5333 105.839 90.26 103.759 90.26C102.812 90.26 102.025 90.0933 101.399 89.76C100.772 89.4133 100.305 88.96 99.9986 88.4C99.7053 87.8267 99.5586 87.2067 99.5586 86.54C99.5586 85.3933 99.9586 84.4867 100.759 83.82C101.559 83.14 102.619 82.8 103.939 82.8C104.805 82.8 105.559 82.9267 106.199 83.18C106.839 83.4333 107.385 83.7867 107.839 84.24L107.499 84.2C107.405 82.8533 107.112 81.8933 106.619 81.32C106.139 80.7333 105.452 80.44 104.559 80.44C104.039 80.44 103.559 80.52 103.119 80.68C102.679 80.84 102.272 81.0067 101.899 81.18C101.539 81.34 101.199 81.42 100.879 81.42C100.559 81.42 100.305 81.3133 100.119 81.1C99.9453 80.8867 99.8586 80.6133 99.8586 80.28C99.8586 79.8 100.085 79.3467 100.539 78.92C101.005 78.4933 101.619 78.1467 102.379 77.88C103.139 77.6133 103.965 77.48 104.859 77.48C105.939 77.48 106.865 77.74 107.639 78.26C108.412 78.78 108.999 79.54 109.399 80.54C109.745 81.3933 109.992 82.3467 110.139 83.4C110.285 84.4533 110.359 85.58 110.359 86.78C110.359 87.6867 110.312 88.3867 110.219 88.88C110.125 89.3733 109.979 89.72 109.779 89.92C109.592 90.1067 109.339 90.2 109.019 90.2ZM104.599 87.96C105.039 87.96 105.485 87.9 105.939 87.78C106.392 87.6467 106.772 87.4533 107.079 87.2C107.385 86.9467 107.539 86.6333 107.539 86.26C107.539 85.94 107.405 85.68 107.139 85.48C106.885 85.2667 106.545 85.1067 106.119 85C105.705 84.8933 105.259 84.84 104.779 84.84C103.965 84.84 103.345 84.98 102.919 85.26C102.505 85.54 102.299 85.9133 102.299 86.38C102.299 86.8867 102.492 87.28 102.879 87.56C103.279 87.8267 103.852 87.96 104.599 87.96ZM116.538 90.28C115.231 90.28 114.211 89.7933 113.478 88.82C112.745 87.8333 112.378 86.3333 112.378 84.32C112.378 82.32 112.738 80.86 113.458 79.94C114.191 79.0067 115.238 78.54 116.598 78.54C117.371 78.54 118.045 78.7 118.618 79.02C119.205 79.34 119.725 79.7933 120.178 80.38L120.018 80.46C119.898 79.9133 119.778 79.3333 119.658 78.72C119.538 78.1067 119.438 77.5267 119.358 76.98C119.291 76.42 119.258 75.98 119.258 75.66C119.258 75.2067 119.331 74.86 119.478 74.62C119.625 74.3667 119.858 74.24 120.178 74.24C120.631 74.24 120.998 74.4333 121.278 74.82C121.558 75.1933 121.791 75.7733 121.978 76.56C122.151 77.2667 122.305 78.1067 122.438 79.08C122.571 80.04 122.678 81.0467 122.758 82.1C122.851 83.14 122.898 84.14 122.898 85.1C122.898 86.4333 122.825 87.4733 122.678 88.22C122.545 88.9533 122.351 89.4667 122.098 89.76C121.858 90.0533 121.571 90.2 121.238 90.2C120.825 90.2 120.545 89.9933 120.398 89.58C120.251 89.1667 120.191 88.4933 120.218 87.56H120.518C120.158 88.3867 119.631 89.0467 118.938 89.54C118.258 90.0333 117.458 90.28 116.538 90.28ZM117.598 87.8C118.078 87.8 118.518 87.68 118.918 87.44C119.331 87.1867 119.658 86.8 119.898 86.28C120.151 85.76 120.278 85.1 120.278 84.3C120.278 83.2733 120.045 82.44 119.578 81.8C119.111 81.1467 118.438 80.82 117.558 80.82C116.865 80.82 116.298 81.1067 115.858 81.68C115.431 82.2533 115.218 83.12 115.218 84.28C115.218 85.3067 115.431 86.1533 115.858 86.82C116.298 87.4733 116.878 87.8 117.598 87.8ZM129.921 77.42C130.441 77.42 130.828 77.62 131.081 78.02C131.334 78.42 131.548 79.0333 131.721 79.86C131.868 80.5667 132.074 81.3867 132.341 82.32C132.608 83.24 132.908 84.1867 133.241 85.16C133.588 86.1333 133.941 87.0667 134.301 87.96H134.381C134.701 87.1333 134.994 86.2533 135.261 85.32C135.541 84.3867 135.774 83.4733 135.961 82.58C136.161 81.6733 136.294 80.8667 136.361 80.16C136.441 79.2933 136.581 78.68 136.781 78.32C136.981 77.9467 137.301 77.76 137.741 77.76C138.208 77.76 138.574 77.9467 138.841 78.32C139.108 78.6933 139.241 79.2733 139.241 80.06C139.241 80.7267 139.168 81.4333 139.021 82.18C138.888 82.9267 138.701 83.6667 138.461 84.4C138.234 85.1333 137.974 85.8133 137.681 86.44C137.334 87.1867 136.988 87.84 136.641 88.4C136.294 88.9467 135.908 89.3733 135.481 89.68C135.068 89.9867 134.561 90.14 133.961 90.14C133.321 90.14 132.774 89.9133 132.321 89.46C131.868 89.0067 131.368 88.2933 130.821 87.32C130.368 86.48 129.974 85.6067 129.641 84.7C129.321 83.7933 129.068 82.9067 128.881 82.04C128.708 81.16 128.621 80.36 128.621 79.64C128.621 78.8933 128.721 78.34 128.921 77.98C129.134 77.6067 129.468 77.42 129.921 77.42ZM142.722 74.66C143.256 74.66 143.636 74.8067 143.862 75.1C144.102 75.3933 144.222 75.7333 144.222 76.12C144.222 76.6 144.076 76.9733 143.782 77.24C143.502 77.4933 143.102 77.62 142.582 77.62C142.076 77.62 141.696 77.48 141.442 77.2C141.189 76.9067 141.062 76.5667 141.062 76.18C141.062 75.6733 141.216 75.2933 141.522 75.04C141.829 74.7867 142.229 74.66 142.722 74.66ZM142.842 79.12C143.269 79.12 143.602 79.52 143.842 80.32C144.096 81.12 144.222 82.3933 144.222 84.14C144.222 86.2867 144.069 87.8333 143.762 88.78C143.456 89.7267 142.989 90.2 142.362 90.2C141.882 90.2 141.529 89.8533 141.302 89.16C141.076 88.4533 140.962 87.2267 140.962 85.48C140.962 83.3333 141.136 81.74 141.482 80.7C141.842 79.6467 142.296 79.12 142.842 79.12ZM148.825 90.04C148.412 90.04 148.085 89.9467 147.845 89.76C147.605 89.56 147.412 89.2333 147.265 88.78C147.065 88.1133 146.912 87.2733 146.805 86.26C146.712 85.2333 146.665 83.9733 146.665 82.48C146.665 81.56 146.699 80.64 146.765 79.72C146.845 78.7867 146.945 77.94 147.065 77.18C147.185 76.4067 147.312 75.8067 147.445 75.38C147.592 74.9267 147.765 74.6133 147.965 74.44C148.165 74.2667 148.392 74.18 148.645 74.18C148.912 74.18 149.125 74.2733 149.285 74.46C149.445 74.6333 149.572 74.9467 149.665 75.4C149.745 75.84 149.805 76.38 149.845 77.02C149.899 77.66 149.925 78.3467 149.925 79.08C149.925 80.08 149.879 81.1333 149.785 82.24C149.692 83.3467 149.565 84.4333 149.405 85.5C149.259 86.5667 149.079 87.5467 148.865 88.44L148.305 88.16C148.652 87.7333 149.045 87.4 149.485 87.16C149.939 86.92 150.352 86.8 150.725 86.8C151.032 86.8 151.265 86.8867 151.425 87.06C151.599 87.22 151.685 87.4733 151.685 87.82C151.685 88.1667 151.532 88.5133 151.225 88.86C150.932 89.2067 150.565 89.4933 150.125 89.72C149.685 89.9333 149.252 90.04 148.825 90.04ZM161.245 90.28C159.938 90.28 158.918 89.7933 158.185 88.82C157.452 87.8333 157.085 86.3333 157.085 84.32C157.085 82.32 157.445 80.86 158.165 79.94C158.898 79.0067 159.945 78.54 161.305 78.54C162.078 78.54 162.752 78.7 163.325 79.02C163.912 79.34 164.432 79.7933 164.885 80.38L164.725 80.46C164.605 79.9133 164.485 79.3333 164.365 78.72C164.245 78.1067 164.145 77.5267 164.065 76.98C163.998 76.42 163.965 75.98 163.965 75.66C163.965 75.2067 164.038 74.86 164.185 74.62C164.332 74.3667 164.565 74.24 164.885 74.24C165.338 74.24 165.705 74.4333 165.985 74.82C166.265 75.1933 166.498 75.7733 166.685 76.56C166.858 77.2667 167.012 78.1067 167.145 79.08C167.278 80.04 167.385 81.0467 167.465 82.1C167.558 83.14 167.605 84.14 167.605 85.1C167.605 86.4333 167.532 87.4733 167.385 88.22C167.252 88.9533 167.058 89.4667 166.805 89.76C166.565 90.0533 166.278 90.2 165.945 90.2C165.532 90.2 165.252 89.9933 165.105 89.58C164.958 89.1667 164.898 88.4933 164.925 87.56H165.225C164.865 88.3867 164.338 89.0467 163.645 89.54C162.965 90.0333 162.165 90.28 161.245 90.28ZM162.305 87.8C162.785 87.8 163.225 87.68 163.625 87.44C164.038 87.1867 164.365 86.8 164.605 86.28C164.858 85.76 164.985 85.1 164.985 84.3C164.985 83.2733 164.752 82.44 164.285 81.8C163.818 81.1467 163.145 80.82 162.265 80.82C161.572 80.82 161.005 81.1067 160.565 81.68C160.138 82.2533 159.925 83.12 159.925 84.28C159.925 85.3067 160.138 86.1533 160.565 86.82C161.005 87.4733 161.585 87.8 162.305 87.8ZM179.044 89.88C178.684 89.88 178.404 89.76 178.204 89.52C178.018 89.2667 177.891 88.9467 177.824 88.56C177.758 88.16 177.724 87.74 177.724 87.3L177.824 87.22C177.691 87.7933 177.431 88.2867 177.044 88.7C176.658 89.1133 176.211 89.4333 175.704 89.66C175.198 89.8733 174.691 89.98 174.184 89.98C173.504 89.98 172.884 89.82 172.324 89.5C171.764 89.18 171.331 88.6867 171.024 88.02C170.718 87.3133 170.478 86.4267 170.304 85.36C170.131 84.28 170.044 83.1733 170.044 82.04C170.044 81.4267 170.071 80.86 170.124 80.34C170.178 79.82 170.264 79.3933 170.384 79.06C170.491 78.7133 170.651 78.46 170.864 78.3C171.078 78.1267 171.351 78.04 171.684 78.04C172.071 78.04 172.371 78.1933 172.584 78.5C172.811 78.7933 172.951 79.2067 173.004 79.74C173.058 80.18 173.091 80.7267 173.104 81.38C173.131 82.02 173.151 82.6667 173.164 83.32C173.191 83.96 173.224 84.5 173.264 84.94C173.344 85.74 173.551 86.3333 173.884 86.72C174.218 87.0933 174.624 87.28 175.104 87.28C175.811 87.28 176.351 87.0133 176.724 86.48C177.098 85.9467 177.284 85.2 177.284 84.24C177.284 83.76 177.258 83.22 177.204 82.62C177.151 82.0067 177.091 81.4133 177.024 80.84C176.971 80.2667 176.944 79.7933 176.944 79.42C176.944 78.7933 177.051 78.3467 177.264 78.08C177.478 77.8 177.771 77.66 178.144 77.66C178.464 77.66 178.731 77.7467 178.944 77.92C179.171 78.0933 179.351 78.3333 179.484 78.64C179.671 79.04 179.831 79.5867 179.964 80.28C180.098 80.9733 180.204 81.76 180.284 82.64C180.364 83.52 180.404 84.4467 180.404 85.42C180.404 86.9133 180.304 88.0333 180.104 88.78C179.904 89.5133 179.551 89.88 179.044 89.88ZM191.901 77.48C193.088 77.48 193.941 77.6533 194.461 78C194.981 78.3467 195.241 78.7933 195.241 79.34C195.241 79.66 195.128 79.9267 194.901 80.14C194.688 80.34 194.381 80.44 193.981 80.44C193.568 80.44 193.134 80.38 192.681 80.26C192.241 80.14 191.728 80.08 191.141 80.08C190.461 80.08 189.954 80.2133 189.621 80.48C189.288 80.7467 189.121 81.0867 189.121 81.5C189.121 81.8867 189.268 82.1933 189.561 82.42C189.868 82.6333 190.448 82.7933 191.301 82.9C192.248 83.0067 193.028 83.18 193.641 83.42C194.268 83.6467 194.734 83.9933 195.041 84.46C195.348 84.9133 195.501 85.54 195.501 86.34C195.501 87.6067 195.054 88.5467 194.161 89.16C193.268 89.7733 192.034 90.08 190.461 90.08C189.461 90.08 188.668 90 188.081 89.84C187.494 89.68 187.068 89.4533 186.801 89.16C186.548 88.8667 186.421 88.52 186.421 88.12C186.421 87.7733 186.534 87.5067 186.761 87.32C187.001 87.12 187.281 87.02 187.601 87.02C187.908 87.02 188.234 87.06 188.581 87.14C188.928 87.2067 189.294 87.28 189.681 87.36C190.068 87.44 190.468 87.48 190.881 87.48C192.214 87.48 192.881 87.0667 192.881 86.24C192.881 85.96 192.814 85.7333 192.681 85.56C192.548 85.3867 192.308 85.2467 191.961 85.14C191.614 85.02 191.108 84.9267 190.441 84.86C189.641 84.78 188.948 84.6467 188.361 84.46C187.774 84.26 187.321 83.94 187.001 83.5C186.681 83.0467 186.521 82.4267 186.521 81.64C186.521 80.4 186.988 79.4 187.921 78.64C188.854 77.8667 190.181 77.48 191.901 77.48ZM198.885 77.6C199.245 77.6 199.545 77.8133 199.785 78.24C200.025 78.6533 200.191 79.3133 200.285 80.22L199.865 80.6C200.105 79.6667 200.551 78.9533 201.205 78.46C201.858 77.9667 202.631 77.72 203.525 77.72C204.351 77.72 205.085 77.9333 205.725 78.36C206.365 78.7867 206.865 79.4333 207.225 80.3C207.598 81.1533 207.785 82.2267 207.785 83.52C207.785 85.6133 207.405 87.16 206.645 88.16C205.898 89.1467 204.878 89.64 203.585 89.64C202.651 89.64 201.918 89.44 201.385 89.04C200.851 88.64 200.478 88.1533 200.265 87.58L200.505 87.46C200.611 88.26 200.698 89.0533 200.765 89.84C200.845 90.6133 200.885 91.2933 200.885 91.88C200.885 92.48 200.778 92.9867 200.565 93.4C200.351 93.8133 200.011 94.02 199.545 94.02C199.091 94.02 198.751 93.8467 198.525 93.5C198.298 93.1533 198.131 92.6933 198.025 92.12C197.945 91.5333 197.865 90.78 197.785 89.86C197.705 88.94 197.638 87.9467 197.585 86.88C197.545 85.8133 197.525 84.7733 197.525 83.76C197.525 82.72 197.558 81.7467 197.625 80.84C197.705 79.92 197.798 79.1733 197.905 78.6C197.998 78.2667 198.118 78.02 198.265 77.86C198.425 77.6867 198.631 77.6 198.885 77.6ZM202.705 80.02C201.985 80.02 201.405 80.38 200.965 81.1C200.538 81.8067 200.325 82.7133 200.325 83.82C200.325 84.9533 200.538 85.8 200.965 86.36C201.405 86.92 201.971 87.2 202.665 87.2C203.465 87.2 204.038 86.8867 204.385 86.26C204.745 85.62 204.925 84.7933 204.925 83.78C204.925 82.4867 204.705 81.54 204.265 80.94C203.825 80.3267 203.305 80.02 202.705 80.02ZM211.57 74.66C212.103 74.66 212.483 74.8067 212.71 75.1C212.95 75.3933 213.07 75.7333 213.07 76.12C213.07 76.6 212.923 76.9733 212.63 77.24C212.35 77.4933 211.95 77.62 211.43 77.62C210.923 77.62 210.543 77.48 210.29 77.2C210.037 76.9067 209.91 76.5667 209.91 76.18C209.91 75.6733 210.063 75.2933 210.37 75.04C210.677 74.7867 211.077 74.66 211.57 74.66ZM211.69 79.12C212.117 79.12 212.45 79.52 212.69 80.32C212.943 81.12 213.07 82.3933 213.07 84.14C213.07 86.2867 212.917 87.8333 212.61 88.78C212.303 89.7267 211.837 90.2 211.21 90.2C210.73 90.2 210.377 89.8533 210.15 89.16C209.923 88.4533 209.81 87.2267 209.81 85.48C209.81 83.3333 209.983 81.74 210.33 80.7C210.69 79.6467 211.143 79.12 211.69 79.12ZM217.673 90.04C217.26 90.04 216.933 89.9467 216.693 89.76C216.453 89.56 216.26 89.2333 216.113 88.78C215.913 88.1133 215.76 87.2733 215.653 86.26C215.56 85.2333 215.513 83.9733 215.513 82.48C215.513 81.56 215.546 80.64 215.613 79.72C215.693 78.7867 215.793 77.94 215.913 77.18C216.033 76.4067 216.16 75.8067 216.293 75.38C216.44 74.9267 216.613 74.6133 216.813 74.44C217.013 74.2667 217.24 74.18 217.493 74.18C217.76 74.18 217.973 74.2733 218.133 74.46C218.293 74.6333 218.42 74.9467 218.513 75.4C218.593 75.84 218.653 76.38 218.693 77.02C218.746 77.66 218.773 78.3467 218.773 79.08C218.773 80.08 218.726 81.1333 218.633 82.24C218.54 83.3467 218.413 84.4333 218.253 85.5C218.106 86.5667 217.926 87.5467 217.713 88.44L217.153 88.16C217.5 87.7333 217.893 87.4 218.333 87.16C218.786 86.92 219.2 86.8 219.573 86.8C219.88 86.8 220.113 86.8867 220.273 87.06C220.446 87.22 220.533 87.4733 220.533 87.82C220.533 88.1667 220.38 88.5133 220.073 88.86C219.78 89.2067 219.413 89.4933 218.973 89.72C218.533 89.9333 218.1 90.04 217.673 90.04ZM224.509 90.04C224.096 90.04 223.769 89.9467 223.529 89.76C223.289 89.56 223.096 89.2333 222.949 88.78C222.749 88.1133 222.596 87.2733 222.489 86.26C222.396 85.2333 222.349 83.9733 222.349 82.48C222.349 81.56 222.382 80.64 222.449 79.72C222.529 78.7867 222.629 77.94 222.749 77.18C222.869 76.4067 222.996 75.8067 223.129 75.38C223.276 74.9267 223.449 74.6133 223.649 74.44C223.849 74.2667 224.076 74.18 224.329 74.18C224.596 74.18 224.809 74.2733 224.969 74.46C225.129 74.6333 225.256 74.9467 225.349 75.4C225.429 75.84 225.489 76.38 225.529 77.02C225.582 77.66 225.609 78.3467 225.609 79.08C225.609 80.08 225.562 81.1333 225.469 82.24C225.376 83.3467 225.249 84.4333 225.089 85.5C224.942 86.5667 224.762 87.5467 224.549 88.44L223.989 88.16C224.336 87.7333 224.729 87.4 225.169 87.16C225.622 86.92 226.036 86.8 226.409 86.8C226.716 86.8 226.949 86.8867 227.109 87.06C227.282 87.22 227.369 87.4733 227.369 87.82C227.369 88.1667 227.216 88.5133 226.909 88.86C226.616 89.2067 226.249 89.4933 225.809 89.72C225.369 89.9333 224.936 90.04 224.509 90.04ZM234.785 90.16C233.305 90.16 232.125 89.94 231.245 89.5C230.365 89.06 229.732 88.4267 229.345 87.6C228.958 86.7733 228.765 85.7867 228.765 84.64C228.765 83.1867 229.032 81.9533 229.565 80.94C230.112 79.9133 230.858 79.1267 231.805 78.58C232.765 78.0333 233.852 77.76 235.065 77.76C236.492 77.76 237.538 78.0933 238.205 78.76C238.872 79.4133 239.205 80.2733 239.205 81.34C239.205 82.1933 238.978 82.9333 238.525 83.56C238.085 84.1733 237.472 84.6467 236.685 84.98C235.898 85.3133 234.992 85.48 233.965 85.48C233.392 85.48 232.838 85.4067 232.305 85.26C231.772 85.1133 231.292 84.9133 230.865 84.66L231.345 83.78C231.305 84.1 231.285 84.42 231.285 84.74C231.285 85.6733 231.578 86.3467 232.165 86.76C232.752 87.16 233.585 87.36 234.665 87.36C235.505 87.36 236.178 87.2867 236.685 87.14C237.192 86.9933 237.618 86.8533 237.965 86.72C238.312 86.5733 238.652 86.5 238.985 86.5C239.172 86.5 239.338 86.5533 239.485 86.66C239.645 86.7533 239.772 86.8933 239.865 87.08C239.972 87.2667 240.025 87.4933 240.025 87.76C240.025 88.16 239.825 88.5467 239.425 88.92C239.025 89.28 238.432 89.58 237.645 89.82C236.872 90.0467 235.918 90.16 234.785 90.16ZM233.625 83.62C234.572 83.62 235.332 83.42 235.905 83.02C236.478 82.62 236.765 82.1267 236.765 81.54C236.765 81.0733 236.605 80.6933 236.285 80.4C235.978 80.0933 235.492 79.94 234.825 79.94C234.198 79.94 233.632 80.06 233.125 80.3C232.632 80.5267 232.245 80.8267 231.965 81.2C231.685 81.5733 231.545 81.98 231.545 82.42C231.545 82.8067 231.725 83.1067 232.085 83.32C232.458 83.52 232.972 83.62 233.625 83.62ZM244.843 75.18C246.456 75.18 247.676 75.6 248.503 76.44C249.343 77.2667 249.763 78.3467 249.763 79.68C249.763 80.4533 249.609 81.1333 249.303 81.72C249.009 82.3067 248.596 82.8333 248.063 83.3C247.543 83.7667 246.936 84.2067 246.243 84.62C245.709 84.94 245.223 85.1667 244.783 85.3C244.343 85.4333 243.936 85.5 243.563 85.5C243.269 85.5 243.023 85.4267 242.823 85.28C242.636 85.12 242.543 84.9133 242.543 84.66C242.543 84.34 242.689 84.0467 242.983 83.78C243.289 83.5 243.743 83.18 244.343 82.82C245.209 82.3133 245.889 81.8267 246.383 81.36C246.876 80.8933 247.123 80.3733 247.123 79.8C247.123 79.3467 246.989 79 246.723 78.76C246.469 78.5067 246.029 78.38 245.403 78.38C244.923 78.38 244.449 78.46 243.983 78.62C243.516 78.78 243.049 78.86 242.583 78.86C242.009 78.86 241.563 78.74 241.243 78.5C240.923 78.26 240.763 77.9133 240.763 77.46C240.763 76.98 240.943 76.5733 241.303 76.24C241.676 75.8933 242.169 75.6333 242.783 75.46C243.409 75.2733 244.096 75.18 244.843 75.18ZM242.363 88.78C242.363 88.3933 242.456 88.08 242.643 87.84C242.829 87.5867 243.063 87.4 243.343 87.28C243.636 87.16 243.943 87.1 244.263 87.1C244.796 87.1 245.203 87.2333 245.483 87.5C245.776 87.7667 245.923 88.1333 245.923 88.6C245.923 89.1733 245.743 89.5867 245.383 89.84C245.023 90.0933 244.583 90.22 244.063 90.22C243.516 90.22 243.096 90.0867 242.803 89.82C242.509 89.5533 242.363 89.2067 242.363 88.78Z" fill="#204BC6"/>
<defs>
<filter id="filter0_d_389_620" x="0" y="0" width="324.351" height="229.167" filterUnits="userSpaceOnUse" color-interpolation-filters="sRGB">
<feFlood flood-opacity="0" result="BackgroundImageFix"/>
<feColorMatrix in="SourceAlpha" type="matrix" values="0 0 0 0 0 0 0 0 0 0 0 0 0 0 0 0 0 0 127 0" result="hardAlpha"/>
<feOffset dy="4"/>
<feGaussianBlur stdDeviation="2"/>
<feComposite in2="hardAlpha" operator="out"/>
<feColorMatrix type="matrix" values="0 0 0 0 0 0 0 0 0 0 0 0 0 0 0 0 0 0 0.25 0"/>
<feBlend mode="normal" in2="BackgroundImageFix" result="effect1_dropShadow_389_620"/>
<feBlend mode="normal" in="SourceGraphic" in2="effect1_dropShadow_389_620" result="shape"/>
</filter>
</defs>
</svg>
