<svg width="108" height="111" viewBox="0 0 108 111" fill="none" xmlns="http://www.w3.org/2000/svg">
<g filter="url(#filter0_diif_353_400)">
<path d="M4 53C4 80.6142 26.3858 103 54 103C81.6142 103 104 80.6142 104 53C104 25.3858 81.6142 3 54 3C26.3858 3 4 25.3858 4 53Z" fill="url(#paint0_radial_353_400)" fill-opacity="0.5" shape-rendering="crispEdges"/>
</g>
<g filter="url(#filter1_f_353_400)">
<path d="M56.5 28C56.5 33.5228 61.0891 38 66.75 38C72.4109 38 77 33.5228 77 28C77 22.4772 72.4109 18 66.75 18C61.0891 18 56.5 22.4772 56.5 28Z" fill="#D9D9D9" fill-opacity="0.2"/>
</g>
<g filter="url(#filter2_f_353_400)">
<path d="M62 43.5C62 52.0604 68.8277 59 77.25 59C85.6723 59 92.5 52.0604 92.5 43.5C92.5 34.9396 85.6723 28 77.25 28C68.8277 28 62 34.9396 62 43.5Z" fill="#D9D9D9" fill-opacity="0.2"/>
</g>
<g filter="url(#filter3_f_353_400)">
<path d="M31.3332 74.3169C39.1427 82.7079 48.3897 86.7962 51.9868 83.4484C55.5839 80.1005 52.169 70.5843 44.3595 62.1933C36.5499 53.8023 27.303 49.714 23.7058 53.0618C20.1087 56.4097 23.5236 65.9259 31.3332 74.3169Z" fill="#D9D9D9" fill-opacity="0.2"/>
</g>
<path d="M74.968 56.272C76.088 56.272 76.888 56.112 77.368 55.792C77.848 55.44 78.088 54.96 78.088 54.352C78.088 53.776 77.864 53.296 77.416 52.912C76.968 52.496 76.12 52.176 74.872 51.952C73.72 51.792 72.344 51.648 70.744 51.52C69.112 51.36 67.4 51.216 65.608 51.088C63.816 50.96 62.04 50.864 60.28 50.8C58.52 50.704 56.904 50.656 55.432 50.656C54.152 50.656 53.256 50.848 52.744 51.232C52.232 51.616 51.976 52.112 51.976 52.72C51.976 53.36 52.216 53.872 52.696 54.256C53.144 54.64 53.928 54.928 55.048 55.12C56.264 55.248 57.768 55.392 59.56 55.552C61.352 55.68 63.224 55.808 65.176 55.936C67.096 56.032 68.92 56.112 70.648 56.176C72.376 56.24 73.816 56.272 74.968 56.272ZM46.6945 42.784C45.5425 42.784 44.2465 43.024 42.8065 43.504C41.3665 43.984 39.9265 44.624 38.4865 45.424C37.0465 46.224 35.7345 47.088 34.5505 48.016C33.3345 48.944 32.3585 49.856 31.6225 50.752C30.8865 51.648 30.5185 52.448 30.5185 53.152C30.5185 53.856 30.9025 54.688 31.6705 55.648C32.4385 56.608 33.4465 57.6 34.6945 58.624C35.9425 59.616 37.3185 60.56 38.8225 61.456C40.3265 62.32 41.8305 63.024 43.3345 63.568C44.8065 64.112 46.1505 64.384 47.3665 64.384C48.3265 64.384 49.0145 64.144 49.4305 63.664C49.8145 63.152 50.0065 62.592 50.0065 61.984C50.0065 60.672 48.5825 59.28 45.7345 57.808C42.8865 56.304 38.9985 54.848 34.0705 53.44V53.92C38.9985 52.448 42.8065 50.976 45.4945 49.504C48.1505 48.032 49.4785 46.608 49.4785 45.232C49.4785 44.464 49.2545 43.872 48.8065 43.456C48.3265 43.008 47.6225 42.784 46.6945 42.784Z" fill="#EFEEEE"/>
<defs>
<filter id="filter0_diif_353_400" x="-26" y="-27" width="134" height="160" filterUnits="userSpaceOnUse" color-interpolation-filters="sRGB">
<feFlood flood-opacity="0" result="BackgroundImageFix"/>
<feColorMatrix in="SourceAlpha" type="matrix" values="0 0 0 0 0 0 0 0 0 0 0 0 0 0 0 0 0 0 127 0" result="hardAlpha"/>
<feOffset dy="4"/>
<feGaussianBlur stdDeviation="2"/>
<feComposite in2="hardAlpha" operator="out"/>
<feColorMatrix type="matrix" values="0 0 0 0 0.962628 0 0 0 0 0.910798 0 0 0 0 0.910798 0 0 0 1 0"/>
<feBlend mode="normal" in2="BackgroundImageFix" result="effect1_dropShadow_353_400"/>
<feBlend mode="normal" in="SourceGraphic" in2="effect1_dropShadow_353_400" result="shape"/>
<feColorMatrix in="SourceAlpha" type="matrix" values="0 0 0 0 0 0 0 0 0 0 0 0 0 0 0 0 0 0 127 0" result="hardAlpha"/>
<feOffset dx="-30" dy="30"/>
<feGaussianBlur stdDeviation="30"/>
<feComposite in2="hardAlpha" operator="arithmetic" k2="-1" k3="1"/>
<feColorMatrix type="matrix" values="0 0 0 0 0.436935 0 0 0 0 0.533693 0 0 0 0 0.920729 0 0 0 1 0"/>
<feBlend mode="normal" in2="shape" result="effect2_innerShadow_353_400"/>
<feColorMatrix in="SourceAlpha" type="matrix" values="0 0 0 0 0 0 0 0 0 0 0 0 0 0 0 0 0 0 127 0" result="hardAlpha"/>
<feOffset dy="-30"/>
<feGaussianBlur stdDeviation="30"/>
<feComposite in2="hardAlpha" operator="arithmetic" k2="-1" k3="1"/>
<feColorMatrix type="matrix" values="0 0 0 0 0.871526 0 0 0 0 0.925057 0 0 0 0 1 0 0 0 1 0"/>
<feBlend mode="normal" in2="effect2_innerShadow_353_400" result="effect3_innerShadow_353_400"/>
<feGaussianBlur stdDeviation="1.5" result="effect4_foregroundBlur_353_400"/>
</filter>
<filter id="filter1_f_353_400" x="48.5" y="10" width="36.5" height="36" filterUnits="userSpaceOnUse" color-interpolation-filters="sRGB">
<feFlood flood-opacity="0" result="BackgroundImageFix"/>
<feBlend mode="normal" in="SourceGraphic" in2="BackgroundImageFix" result="shape"/>
<feGaussianBlur stdDeviation="4" result="effect1_foregroundBlur_353_400"/>
</filter>
<filter id="filter2_f_353_400" x="54" y="20" width="46.5" height="47" filterUnits="userSpaceOnUse" color-interpolation-filters="sRGB">
<feFlood flood-opacity="0" result="BackgroundImageFix"/>
<feBlend mode="normal" in="SourceGraphic" in2="BackgroundImageFix" result="shape"/>
<feGaussianBlur stdDeviation="4" result="effect1_foregroundBlur_353_400"/>
</filter>
<filter id="filter3_f_353_400" x="14.2742" y="43.8928" width="47.1443" height="48.7246" filterUnits="userSpaceOnUse" color-interpolation-filters="sRGB">
<feFlood flood-opacity="0" result="BackgroundImageFix"/>
<feBlend mode="normal" in="SourceGraphic" in2="BackgroundImageFix" result="shape"/>
<feGaussianBlur stdDeviation="4" result="effect1_foregroundBlur_353_400"/>
</filter>
<radialGradient id="paint0_radial_353_400" cx="0" cy="0" r="1" gradientUnits="userSpaceOnUse" gradientTransform="translate(54 53) rotate(90) scale(50)">
<stop offset="0.769231" stop-color="#2C5ACC"/>
<stop offset="1" stop-color="#214399"/>
</radialGradient>
</defs>
</svg>
